<svg width="135" height="26" viewBox="0 0 135 26" fill="none" xmlns="http://www.w3.org/2000/svg">
<path d="M12.1154 3.30395C11.8433 3.32597 11.5727 3.36395 11.305 3.41769C11.6956 3.91859 11.9997 4.4816 12.2046 5.08332L18.3562 4.93707C16.5245 3.69086 14.321 3.11422 12.1154 3.30395Z" fill="url(#paint0_linear)"/>
<path d="M9.55432 3.89708L9.15718 4.0677C9.0113 4.12458 8.87351 4.18145 8.74383 4.24645C8.61416 4.31145 8.33859 4.4577 8.14408 4.57145C8.04967 4.62666 7.98772 4.6589 7.93599 4.68582C7.88114 4.71437 7.83775 4.73695 7.77936 4.77458C7.66589 4.8477 7.36601 5.05895 7.1715 5.2052L6.87972 5.40833C6.60416 5.63583 6.3367 5.87145 6.06924 6.13145C5.81799 6.38333 5.58295 6.65145 5.35601 6.94395L5.13718 7.2527C5.09127 7.31768 5.04446 7.38175 4.99765 7.44583C4.904 7.57401 4.81028 7.7023 4.72384 7.8377L4.50501 8.2277C4.39964 8.41458 4.29428 8.60958 4.19702 8.8127C4.09976 9.01583 4.06735 9.08895 4.01061 9.2352C3.99305 9.28048 3.97626 9.32342 3.96001 9.36499C3.92377 9.45769 3.89019 9.54357 3.85662 9.63333C4.27355 10.1005 4.79269 10.4647 5.3734 10.6973C5.9541 10.9298 6.58062 11.0245 7.20392 10.974C7.99163 10.9069 8.74257 10.6103 9.36425 10.1207C9.98592 9.63116 10.4512 8.97 10.7027 8.21867C10.9543 7.46734 10.9811 6.65866 10.7799 5.89224C10.5788 5.12581 10.1584 4.43511 9.57053 3.9052L9.55432 3.89708Z" fill="url(#paint1_linear)"/>
<path d="M13.7364 22.7551H13.2177L9.31117 12.0301C9.63765 11.8725 9.94724 11.6819 10.2351 11.4613L19.2072 20.4638C17.6659 21.7798 15.7534 22.5807 13.7364 22.7551Z" fill="url(#paint2_linear)"/>
<path d="M6.63658 12.5826C6.86322 12.5989 7.09074 12.5989 7.31738 12.5826C7.46716 12.5662 7.61596 12.5418 7.76315 12.5095L11.4427 22.6495C9.58003 22.3615 7.84189 21.5341 6.44206 20.2689L6.63658 12.5826Z" fill="url(#paint3_linear)"/>
<path d="M4.87783 18.4489C3.47499 16.3798 2.93135 13.8443 3.36222 11.3801C3.85982 11.7769 4.42186 12.0847 5.02371 12.2901L4.87783 18.4489Z" fill="url(#paint4_linear)"/>
<path d="M20.3662 19.3102L11.386 10.3077C11.6061 10.0191 11.7962 9.70875 11.9534 9.38145L22.6517 13.3058C22.5887 15.5087 21.783 17.6252 20.3662 19.3102Z" fill="url(#paint5_linear)"/>
<path d="M12.4396 7.83764C12.5047 7.46221 12.5292 7.08083 12.5126 6.70014L20.1716 6.50514C21.4337 7.91476 22.2589 9.6624 22.5464 11.5345L12.4396 7.83764Z" fill="url(#paint6_linear)"/>
<path fill-rule="evenodd" clip-rule="evenodd" d="M11.8804 0.0457802C9.32667 0.261199 6.89385 1.23035 4.88915 2.83087C2.88444 4.43139 1.39775 6.59149 0.616782 9.03844C-0.164184 11.4854 -0.2044 14.1095 0.501212 16.5793C1.20682 19.0492 2.62662 21.254 4.58133 22.9155C6.53604 24.577 8.93801 25.6206 11.4839 25.9146C14.0299 26.2086 16.6056 25.7397 18.8859 24.5672C21.1663 23.3947 23.0489 21.5711 24.2961 19.3268C25.5434 17.0824 26.0993 14.5179 25.8937 11.957C25.7567 10.2514 25.2852 8.58963 24.5062 7.06706C23.7272 5.5445 22.6561 4.19109 21.3541 3.08447C20.0522 1.97784 18.5452 1.13977 16.9195 0.618317C15.2937 0.0968677 13.5813 -0.0976977 11.8804 0.0457802ZM24.2727 12.087C24.3946 13.5771 24.2225 15.0766 23.7663 16.5C23.3101 17.9234 22.5787 19.2427 21.6138 20.3827C20.649 21.5227 19.4696 22.4611 18.143 23.1442C16.8165 23.8273 15.3687 24.2417 13.8823 24.3639C12.396 24.4861 10.9001 24.3136 9.4803 23.8562C8.06045 23.3989 6.74436 22.6656 5.60718 21.6984C4.47 20.7312 3.53399 19.5488 2.85259 18.219C2.1712 16.8891 1.75777 15.4377 1.6359 13.9476C1.52445 12.5967 1.65902 11.2366 2.03304 9.9339L2.15461 9.5439C2.70761 7.83393 3.65699 6.2797 4.92492 5.00861C6.19286 3.73752 7.74324 2.78578 9.44896 2.2314L9.83799 2.10953C10.5395 1.90645 11.2587 1.77042 11.9858 1.70328C13.4731 1.57406 14.9712 1.74034 16.3943 2.1926C17.8174 2.64485 19.1375 3.37418 20.2789 4.3388C21.4203 5.30342 22.3606 6.48436 23.046 7.81395C23.7313 9.14354 24.1482 10.5956 24.2727 12.087Z" fill="url(#paint7_linear)"/>
<path d="M37.3536 17.3355C40.6085 17.3355 42.0609 16.1785 42.0609 14.1895C42.0609 12.9155 41.4514 12.1875 40.0379 11.8105C39.3376 11.6155 38.4429 11.4985 37.3276 11.4465C36.0309 11.3945 35.2787 11.2905 34.8767 11.1345C34.4618 10.9785 34.371 10.7575 34.371 10.4325C34.371 9.76948 34.9286 9.37948 36.6663 9.37948C38.4169 9.37948 39.4803 9.61348 39.7396 10.7965H42.0609C41.6329 8.45648 39.9212 7.55948 36.7052 7.55948C33.6837 7.55948 32.1665 8.70348 32.1665 10.4975C32.1665 11.7975 32.75 12.5385 33.982 12.9025C34.6044 13.0975 35.3825 13.2145 36.3162 13.2665C38.2095 13.3705 39.1561 13.4355 39.5711 13.7085C39.7656 13.8255 39.8693 14.0465 39.8693 14.3455C39.8693 15.1125 39.1042 15.4375 37.4055 15.4375C35.5511 15.4375 34.3969 15.0605 34.0857 13.7735H31.7256C32.0498 15.4245 32.8278 16.4515 34.371 16.9585C35.1491 17.2185 36.1346 17.3355 37.3536 17.3355Z" fill="white"/>
<path d="M48.7469 17.3225C50.9254 17.3225 52.6372 16.6335 53.5709 15.2165C54.0636 14.5015 54.2841 13.6175 54.2841 12.5385V12.4475C54.2841 10.3415 53.2726 8.88548 51.5868 8.13148C50.7309 7.75448 49.8102 7.55948 48.7339 7.55948C46.5942 7.55948 44.8954 8.33948 43.9358 9.80848C43.469 10.5365 43.2226 11.4205 43.2226 12.4605V12.5255C43.2226 14.7615 44.1692 16.1395 45.8421 16.8155C46.672 17.1665 47.6316 17.3225 48.7469 17.3225ZM48.7339 15.3465C46.685 15.3465 45.466 14.4625 45.466 12.5125V12.4995C45.466 10.3805 46.685 9.52248 48.7469 9.52248C50.1214 9.52248 51.094 9.88648 51.6387 10.7575C51.911 11.2125 52.0407 11.7845 52.0407 12.5125V12.5255C52.0407 13.9165 51.483 14.7225 50.4975 15.0735C50.0047 15.2685 49.4341 15.3465 48.7339 15.3465Z" fill="white"/>
<path d="M55.9097 17.0625H64.248V15.0085H58.1142V7.79348H55.9097V17.0625Z" fill="white"/>
<path d="M73.496 15.0475L74.4815 17.0625H76.8028L72.0436 7.79348H69.7483L65.0669 17.0625H67.4141L68.3737 15.0475H73.496ZM70.8895 9.75648L72.6142 13.2795H69.2166L70.8895 9.75648Z" fill="white"/>
<path d="M80.009 14.0725H82.6155C83.7956 14.0725 84.4181 14.2545 84.7163 14.7745C84.859 15.0345 84.9238 15.3985 84.9238 15.8665V16.4385C84.9238 16.6855 84.9627 16.9715 85.1832 17.0625H87.4525C87.258 16.9455 87.2321 16.6855 87.2321 16.4645V15.8535C87.2321 14.2025 86.6355 13.4745 85.2739 13.1755C86.6615 12.8245 87.2969 12.1095 87.2969 10.7185C87.2969 8.67748 85.9742 7.79348 82.7063 7.79348H77.8434V17.0625H80.009V14.0725ZM80.009 9.63948H82.6804C83.7697 9.63948 84.457 9.71748 84.8071 10.0685C84.9627 10.2375 85.0535 10.4975 85.0535 10.8485V11.0175C85.0535 11.7455 84.6255 12.0445 83.8734 12.1485C83.5103 12.1875 83.0953 12.2135 82.6026 12.2135H80.009V9.63948Z" fill="white"/>
<path d="M88.9622 17.0625H94.1753C96.2242 17.0625 97.6117 16.7505 98.3379 15.9705C98.701 15.5935 98.8826 15.0475 98.8826 14.3715V14.3195C98.8826 13.0065 98.2342 12.4865 96.7429 12.2785C98.0656 12.0315 98.6491 11.4985 98.6491 10.3025V10.2245C98.6491 8.36548 97.1578 7.79348 94.0845 7.79348H88.9622V17.0625ZM91.076 9.50948H94.2142C95.3294 9.50948 95.9648 9.56148 96.276 9.82148C96.4316 9.96448 96.5095 10.1725 96.5095 10.4715V10.5235C96.5095 11.0825 96.1204 11.3165 95.4591 11.4075C95.1089 11.4465 94.7458 11.4595 94.292 11.4595H91.076V9.50948ZM91.076 13.1495H94.0586C95.4202 13.1495 96.1334 13.2145 96.4316 13.5135C96.5873 13.6565 96.6651 13.8775 96.6651 14.1765V14.2285C96.6651 14.7745 96.4316 15.0475 95.6276 15.1515C95.2256 15.2165 94.668 15.2425 93.9029 15.2425H91.076V13.1495Z" fill="white"/>
<path d="M109.349 17.0625V15.1645H102.333V13.3315H108.039V11.4985H102.333V9.62648H109.077V7.79348H100.246V17.0625H109.349Z" fill="white"/>
<path d="M118.49 15.0475L119.476 17.0625H121.797L117.038 7.79348H114.743L110.061 17.0625H112.409L113.368 15.0475H118.49ZM115.884 9.75648L117.609 13.2795H114.211L115.884 9.75648Z" fill="white"/>
<path d="M124.939 10.8485L128.323 14.7225H128.479L132.019 10.8095V17.0625H134.12V7.79348H132.227L128.466 12.0055L124.874 7.79348H122.838V17.0625H124.939V10.8485Z" fill="white"/>
<defs>
<linearGradient id="paint0_linear" x1="12.9677" y1="-1.67886e-07" x2="25.9761" y2="20.3292" gradientUnits="userSpaceOnUse">
<stop stop-color="#9F76F4"/>
<stop offset="0.786458" stop-color="#FFAB7B"/>
</linearGradient>
<linearGradient id="paint1_linear" x1="12.9677" y1="-1.67886e-07" x2="25.9761" y2="20.3292" gradientUnits="userSpaceOnUse">
<stop stop-color="#9F76F4"/>
<stop offset="0.786458" stop-color="#FFAB7B"/>
</linearGradient>
<linearGradient id="paint2_linear" x1="12.9677" y1="-1.67886e-07" x2="25.9761" y2="20.3292" gradientUnits="userSpaceOnUse">
<stop stop-color="#9F76F4"/>
<stop offset="0.786458" stop-color="#FFAB7B"/>
</linearGradient>
<linearGradient id="paint3_linear" x1="12.9677" y1="-1.67886e-07" x2="25.9761" y2="20.3292" gradientUnits="userSpaceOnUse">
<stop stop-color="#9F76F4"/>
<stop offset="0.786458" stop-color="#FFAB7B"/>
</linearGradient>
<linearGradient id="paint4_linear" x1="12.9677" y1="-1.67886e-07" x2="25.9761" y2="20.3292" gradientUnits="userSpaceOnUse">
<stop stop-color="#9F76F4"/>
<stop offset="0.786458" stop-color="#FFAB7B"/>
</linearGradient>
<linearGradient id="paint5_linear" x1="12.9677" y1="-1.67886e-07" x2="25.9761" y2="20.3292" gradientUnits="userSpaceOnUse">
<stop stop-color="#9F76F4"/>
<stop offset="0.786458" stop-color="#FFAB7B"/>
</linearGradient>
<linearGradient id="paint6_linear" x1="12.9677" y1="-1.67886e-07" x2="25.9761" y2="20.3292" gradientUnits="userSpaceOnUse">
<stop stop-color="#9F76F4"/>
<stop offset="0.786458" stop-color="#FFAB7B"/>
</linearGradient>
<linearGradient id="paint7_linear" x1="12.9677" y1="-1.67886e-07" x2="25.9761" y2="20.3292" gradientUnits="userSpaceOnUse">
<stop stop-color="#9F76F4"/>
<stop offset="0.786458" stop-color="#FFAB7B"/>
</linearGradient>
</defs>
</svg>
